P3
# Sample PPM Image
4 4
255
# Pixel data: R G B values
# Row 1
255 0 0   0 255 0   0 0 255   255 255 0
# Row 2
255 255 255   0 0 0   128 128 128   255 0 255
# Row 3
0 255 255   192 192 192   64 64 64   128 0 128
# Row 4
0 128 0   128 128 0   0 0 128   255 165 0